<?xml version="1.0" encoding="utf-8"?>

<!-- Uploaded to: SVG Repo, www.svgrepo.com, Generator: SVG Repo Mixer Tools -->
<svg version="1.1" id="Icons" xmlns="http://www.w3.org/2000/svg" xmlns:xlink="http://www.w3.org/1999/xlink" 
	 viewBox="0 0 32 32" xml:space="preserve">
<style type="text/css">
	.st0{fill:none;stroke:#000000;stroke-width:2;stroke-linecap:round;stroke-linejoin:round;stroke-miterlimit:10;}
</style>
<g>
	<path d="M12.4,14.3c0.3-0.6,0.7-1.1,1.2-1.5c0.3-1.8-0.6-3.6-2.3-4.3l-0.2-0.1c-1.9,1.3-3.4,3.3-3.9,5.6
		C8.9,13.4,10.8,13.5,12.4,14.3z"/>
	<path d="M12.1,16.5c-1.4-1.2-3.4-1.3-4.8-0.2L7,16.5c0.1,2.4,1.2,4.6,2.9,6.2c0.2-1.8,1.3-3.4,2.8-4.3
		C12.4,17.8,12.1,17.2,12.1,16.5z"/>
	<circle cx="16" cy="16" r="2"/>
	<path d="M15.6,12c0.1,0,0.2,0,0.4,0c0.6,0,1.1,0.1,1.6,0.3c1.7-0.6,2.8-2.3,2.5-4.1l0-0.2c-1.2-0.6-2.6-1-4.1-1
		c-0.9,0-1.9,0.2-2.7,0.4C14.7,8.5,15.6,10.2,15.6,12z"/>
	<path d="M19.3,13.7c0.4,0.5,0.6,1.1,0.7,1.8c1.4,1.2,3.4,1.3,4.8,0.2l0.2-0.1c-0.1-2.4-1.2-4.6-2.9-6.2
		C21.8,11.2,20.8,12.8,19.3,13.7z"/>
	<path d="M19.6,17.7c-0.3,0.6-0.7,1.1-1.2,1.5c-0.3,1.8,0.6,3.6,2.3,4.3l0.2,0.1c1.9-1.3,3.4-3.3,3.9-5.6c-0.7,0.3-1.5,0.5-2.3,0.5
		C21.5,18.4,20.5,18.2,19.6,17.7z"/>
	<path d="M16.4,20c-0.1,0-0.2,0-0.4,0c-0.6,0-1.1-0.1-1.6-0.3c-1.7,0.6-2.8,2.3-2.5,4.1l0,0.2c1.2,0.6,2.6,1,4.1,1
		c0.9,0,1.9-0.2,2.7-0.4C17.3,23.5,16.4,21.8,16.4,20z"/>
</g>
<path d="M27,2H5C3.3,2,2,3.3,2,5v22c0,1.7,1.3,3,3,3h22c1.7,0,3-1.3,3-3V5C30,3.3,28.7,2,27,2z M6,5h1c0.6,0,1,0.4,1,1S7.6,7,7,7H6
	C5.4,7,5,6.6,5,6S5.4,5,6,5z M7,27H6c-0.6,0-1-0.4-1-1s0.4-1,1-1h1c0.6,0,1,0.4,1,1S7.6,27,7,27z M26,27h-1c-0.6,0-1-0.4-1-1
	s0.4-1,1-1h1c0.6,0,1,0.4,1,1S26.6,27,26,27z M21.6,25.5c0,0-0.1,0.1-0.1,0.1C19.8,26.5,18,27,16,27C9.9,27,5,22.1,5,16
	c0-4.1,2.3-7.7,5.6-9.6c0,0,0,0,0,0C12.2,5.5,14,5,16,5c2,0,3.9,0.6,5.5,1.5c0,0,0.1,0,0.1,0.1C24.8,8.5,27,12,27,16
	C27,20,24.8,23.5,21.6,25.5z M26,7h-1c-0.6,0-1-0.4-1-1s0.4-1,1-1h1c0.6,0,1,0.4,1,1S26.6,7,26,7z"/>
</svg>