<svg width="60" height="100" viewBox="0 0 60 100" xmlns="http://www.w3.org/2000/svg" fill="none" stroke="black" stroke-width="2">
  <g transform="scale(1.5) translate(-5,0)">
    <!-- Cạnh dọc -->
    <rect x="40" y="0" width="3" height="60" fill="black" />

    <!-- Cạnh ngang -->
    <rect x="10" y="60" width="30" height="3" fill="black" />

    <!-- 10 vạch ngang -->
    <line x1="40" y1="6" x2="28" y2="6" />
    <line x1="40" y1="12" x2="30" y2="12" />
    <line x1="40" y1="18" x2="26" y2="18" />
    <line x1="40" y1="24" x2="32" y2="24" />
    <line x1="40" y1="30" x2="28" y2="30" />
    <line x1="40" y1="36" x2="34" y2="36" />
    <line x1="40" y1="42" x2="30" y2="42" />
    <line x1="40" y1="48" x2="34" y2="48" />
    <line x1="40" y1="54" x2="28" y2="54" />

    <!-- Giọt nước (dịch xuống thêm 10px) -->
    <g transform="translate(0,10)">
      <path d="M15,0 L12,8 A4,4 0 0,0 18,8 Z" fill="none" stroke="black" stroke-width="1" />
      <path d="M20,12 L16,20 A4,4 0 0,0 24,20 Z" fill="none" stroke="black" stroke-width="1" />
      <path d="M12,22 L8,30 A4,4 0 0,0 16,30 Z" fill="none" stroke="black" stroke-width="1" />
    </g>
  </g>
</svg>
